<svg width="515" height="386" viewBox="0 0 515 386" fill="none" xmlns="http://www.w3.org/2000/svg">
<path d="M251.637 381.971C212.7 382.696 173.787 369.836 144.663 342.948C123.893 323.773 108.231 297.588 100.953 264.334C100.507 262.296 98.6553 260.877 96.5694 260.922C73.0379 261.427 49.7316 252.45 32.4372 234.047C15.1771 215.68 4.00017 188.064 3.99999 151.183L4 32C4 16.5361 16.536 4.00001 32 4.00001L483 4.00006C498.464 4.00006 511 16.5361 511 32.0001L511 151.183C511 221.316 463.581 259.913 414.184 260.922C407.553 261.057 401.547 265.394 399.704 271.766C379.149 342.845 315.83 380.775 251.637 381.971Z" fill="url(#paint0_linear_342_1228)" stroke="#D57A66" stroke-width="7"/>
<defs>
<linearGradient id="paint0_linear_342_1228" x1="257.5" y1="4.00004" x2="257.5" y2="382" gradientUnits="userSpaceOnUse">
<stop/>
<stop offset="0.66" stop-opacity="0"/>
</linearGradient>
</defs>
</svg>
