<svg width="68" height="69" viewBox="0 0 68 69" fill="none" xmlns="http://www.w3.org/2000/svg">
<path d="M34.0002 20C41.726 20 48.0001 26.3056 48.0002 34.0977C48.0002 41.8899 41.7261 48.1963 34.0002 48.1963C26.2744 48.1963 20.0002 41.8899 20.0002 34.0977C20.0004 26.3056 26.2745 20 34.0002 20Z" fill="#D19C2E" stroke="#C0803B" stroke-width="2"/>
<path d="M62.6833 29.9971C67.1829 29.9972 67.0896 36.3503 62.6818 36.3504C58.2741 36.3504 62.2348 36.3507 57.6819 36.3505C53.1291 36.3503 53.2946 29.997 57.7647 29.997L62.6833 29.9971Z" fill="#D29D32" stroke="#C0803B" stroke-width="2"/>
<path d="M9.68327 29.9971C14.1829 29.9972 14.0896 36.3503 9.68183 36.3504C5.2741 36.3504 9.23481 36.3507 4.68195 36.3505C0.129092 36.3503 0.29461 29.997 4.76471 29.997L9.68327 29.9971Z" fill="#D29D32" stroke="#C0803B" stroke-width="2"/>
<path d="M17.4862 15.6487C20.9331 18.5411 16.7779 23.3479 13.4013 20.5147C10.0248 17.6815 13.0587 20.2276 9.57111 17.3009C6.08353 14.3743 10.2942 9.61369 13.7184 12.4871L17.4862 15.6487Z" fill="#D29D32" stroke="#C0803B" stroke-width="2"/>
<path d="M58.4862 49.6487C61.9331 52.5411 57.7779 57.3479 54.4013 54.5147C51.0248 51.6815 54.0587 54.2276 50.5711 51.3009C47.0835 48.3743 51.2942 43.6137 54.7184 46.4871L58.4862 49.6487Z" fill="#D29D32" stroke="#C0803B" stroke-width="2"/>
<path d="M50.5602 14.6487C47.1133 17.5411 51.2685 22.3479 54.6451 19.5147C58.0216 16.6815 54.9877 19.2276 58.4753 16.3009C61.9629 13.3743 57.7522 8.61369 54.3279 11.4871L50.5602 14.6487Z" fill="#D29D32" stroke="#C0803B" stroke-width="2"/>
<path d="M9.56015 51.6487C6.1133 54.5411 10.2685 59.3479 13.6451 56.5147C17.0216 53.6815 13.9877 56.2276 17.4753 53.3009C20.9629 50.3743 16.7522 45.6137 13.3279 48.4871L9.56015 51.6487Z" fill="#D29D32" stroke="#C0803B" stroke-width="2"/>
<path d="M37.3774 9.68327C37.3773 14.1829 31.0242 14.0896 31.0241 9.68183C31.0241 5.2741 31.0238 9.23481 31.024 4.68195C31.0242 0.129092 37.3776 0.29461 37.3775 4.76471L37.3774 9.68327Z" fill="#D29D32" stroke="#C0803B" stroke-width="2"/>
<path d="M37.3774 63.6833C37.3773 68.1829 31.0242 68.0896 31.0241 63.6818C31.0241 59.2741 31.0238 63.2348 31.024 58.6819C31.0242 54.1291 37.3776 54.2946 37.3775 58.7647L37.3774 63.6833Z" fill="#D29D32" stroke="#C0803B" stroke-width="2"/>
</svg>
