<svg width="1396" height="506" viewBox="0 0 1396 506" fill="none" xmlns="http://www.w3.org/2000/svg">
<path d="M324.105 47.757C326.276 63.7573 309.718 78.7976 298.636 87.0859C294.905 89.8602 296.672 88.4797 294.128 90.292C289.362 93.6456 284.115 97.0413 279.146 100.008C277.439 101.025 279.52 99.6781 277.723 100.746C267.635 106.707 257.982 111.851 247.661 117.046C196.057 142.795 143.253 163.401 91.4598 190.184C74.4636 198.998 53.9735 210.528 38.1917 222.441C36.3279 223.849 37.4862 223.071 37.1358 223.343C31.7333 227.629 33.5271 226.056 30.0651 228.883C16.4288 240.142 2.06038 256.33 1.49591 273.701C1.55205 280.855 1.29528 273.651 1.97114 280.864C2.04609 281.368 1.67527 279.561 1.98865 281.537C2.5765 286.207 6.11565 293.996 8.01082 297.052C11.3633 302.978 11.9444 303.935 15.3476 309.394C20.0226 316.842 25.9753 325.439 31.7972 332.866C33.0387 334.448 31.4564 332.306 33.4525 334.816C35.4329 337.339 40.888 343.881 42.7736 346.023C44.6492 348.187 43.7997 347.311 44.1241 347.701C46.7776 350.933 53.6758 357.953 54.5823 358.83C70.8201 375.209 86.1915 387.882 103.933 400.251C117.43 409.639 132.581 418.656 146.421 425.96C162.891 434.641 177.287 441.237 194.13 448.014C195.919 448.729 193.86 447.806 196.043 448.674C219.078 457.8 242.532 465.37 266.442 471.839C268.816 472.48 265.731 471.744 268.104 472.386C282.683 476.405 306.122 481.784 315.012 483.146C325.156 485.214 337.381 487.438 346.408 488.994C352.223 489.991 346.538 489.168 353.729 490.274C355.355 490.52 353.253 490.112 355.693 490.485C366.03 492.064 377.166 493.632 387.346 494.848C389.404 495.094 388.852 494.954 389.437 495.012C394.348 495.514 402.584 496.609 404.396 496.812C417.936 498.358 428.004 499.234 440.721 500.23C443.687 500.459 440.187 500.096 443.043 500.31C457.859 501.418 473.103 502.303 487.596 502.954C490.829 503.098 487.852 503.056 489.398 503.128C496.24 503.44 497.697 503.337 504.199 503.575C505.569 503.623 504.795 503.669 505.045 503.684C508.958 503.922 512.384 503.838 513.398 503.859C526.249 504.105 534.344 504.417 546.685 504.547C548.159 504.561 544.838 504.435 548.979 504.479C576.602 504.768 605.806 504.668 633.147 503.904C637.412 503.783 634.37 503.943 634.638 503.943C639.015 503.933 641.823 503.658 643.205 503.601C654.11 503.155 664.337 502.784 671.752 502.148C717.967 499.485 763.941 494.369 808.635 483.679C809.206 483.541 808.205 483.873 809.342 483.597C822.937 480.208 820.339 480.695 829.161 477.987C831.351 477.314 838.269 475.347 838.848 475.161C841.034 474.505 838.822 475.356 839.552 475.129C845.542 473.225 844.555 473.172 852.549 470.265C852.799 470.173 851.777 470.631 852.449 470.391C854.523 469.652 856.625 468.82 858.669 468.047C863.343 466.256 865.074 465.814 872.029 462.603C872.906 462.176 871.455 462.661 878.397 459.389C881.198 458.139 893.15 451.859 896.338 449.91C899.624 447.991 897.411 449.382 897.647 449.247C906.438 444.035 903.08 446.092 907.471 443.409C911.803 440.666 910.411 441.16 912.089 439.939C913.764 438.745 919.797 434.292 921.213 433.149C922.652 432.026 920.912 433.493 922.183 432.485C930.568 425.629 925.708 429.296 928.355 426.923C934.375 421.229 939.731 416.755 943.894 410.505C944.984 408.813 944.042 410.217 945.011 408.595C948.589 402.134 950.1 397.865 950.594 389.608C950.727 388.255 950.411 381.545 949.625 377.253C949.518 376.635 949.953 378.376 949.319 375.257C948.434 370.691 945.669 362.696 943.573 358.188C942.01 354.783 943.739 358.751 941.726 354.42C940.81 352.514 942.56 355.92 940.879 352.479C939.284 349.101 934.262 340.387 932.232 337.276C930.2 334.082 931.239 335.874 931.072 335.619C930.034 334.019 925.999 328.113 925.622 327.599C907.073 301.181 887.229 279.017 866.799 255.196C865.191 253.33 866.196 254.63 865.95 254.345C860.43 247.965 864.928 252.865 861.157 248.341C861.579 249.099 859.338 246.441 855.487 241.923C853.633 239.746 854.588 240.978 854.414 240.783C851.602 237.613 849.802 235.251 849.334 234.649C847.605 232.424 845.566 230.144 844.405 228.628C843.247 227.113 846.1 230.442 842.503 226.053C841.449 224.859 843.988 228.228 841.242 224.902C830.716 212.392 812.648 187.77 806.012 176.514C799.146 165.235 797.314 161.471 794.007 154.6C788.394 142.096 790.297 146.585 787.352 138.699C784.593 130.412 786.242 134.37 785.92 133.16C785.644 131.979 785.231 130.728 784.901 129.278C784.581 127.834 785.378 130.928 784.576 127.554C783.654 124.09 782.24 114.643 782.181 113.329C781.927 110.684 781.706 115.032 781.744 105.681C781.761 105.145 781.79 106.884 781.857 104.836C782.324 88.3698 789.362 72.1235 800.305 59.6889C801.76 58.0286 800.529 59.5666 801.375 58.62C810.648 49.0975 807.68 52.23 813.156 47.5883C812.083 48.7662 814.882 46.2503 824.082 40.7698C829.364 37.7392 828.367 38.2384 831.889 36.3455C832.937 35.7784 836.996 33.9153 837.74 33.5416C840.11 32.3505 836.382 33.64 845.99 29.7585C846.419 29.5908 845.085 30.2073 846.567 29.6229C856.269 25.9208 857.624 25.3127 868.255 22.0812C876.907 19.4635 891.954 15.9589 902.124 14.041C901.949 14.3084 911.105 12.5278 914.935 11.7356C921.462 10.6407 928.451 9.59133 934.638 8.78618C936.784 8.50763 935.385 8.76548 935.656 8.73687C939.825 8.30475 942.661 7.8003 944.078 7.62306C959.347 5.74284 971.882 4.76156 986.209 3.63379C986.724 3.5948 987.537 3.36359 991.44 3.23458C991.693 3.22768 986.879 3.60937 993.743 3.18052C1000.68 2.74447 1013.5 2.18251 1023.05 1.76938C1025.34 1.66522 1031.33 1.32892 1035.92 1.31676C1036.54 1.31495 1035.86 1.38096 1036.76 1.38457C1039.65 1.39634 1041.22 1.18837 1044.64 1.26287C1048.04 1.33913 1055.22 1.31031 1064.83 1.14477C1065.13 1.13991 1067.39 0.988581 1070.4 0.980592C1075.21 0.965881 1082.06 1.00452 1087.12 1.0384C1089.54 1.0543 1087.99 0.960074 1088.41 0.961427C1104.62 1.04469 1116.18 1.33876 1133.53 1.88396C1136.71 1.98315 1145.86 2.17168 1152.01 2.50377C1158.78 2.87456 1151.81 2.97708 1167.37 3.55969C1173.64 3.80474 1181.56 3.65585 1192.85 4.54837C1214.7 5.69148 1234.73 7.17609 1256.77 8.78102C1257.76 8.85265 1260.87 8.9492 1263.16 9.13371C1266.58 9.40824 1268.4 9.62483 1270.85 9.82975C1281.31 10.7065 1290.53 11.4474 1300.43 12.3534C1304.24 12.7038 1302.91 12.6518 1307.42 13.0731C1311.92 13.4951 1314.92 13.6832 1320.88 14.3037C1325.3 14.7651 1330.11 15.4268 1336.18 16.0611C1336.42 15.8986 1340.64 16.3241 1347.9 17.0296C1349.29 17.1652 1347.81 16.9449 1348.46 17.0057C1351.08 17.2444 1353.83 17.5894 1356.45 17.8315C1357.1 17.8913 1357.13 17.8311 1357.66 17.8764C1362.14 18.2594 1369.28 19.1853 1370.48 19.3441C1375.05 19.9438 1377.54 20.1403 1381.22 20.5942C1384.92 21.0508 1379.39 20.4704 1383.7 20.9825C1392.44 22.023 1404.07 23.3843 1412.81 24.4537C1416.27 24.8771 1413.92 24.5041 1414.41 24.5628C1421.77 25.44 1429.58 26.5168 1433.4 26.8346C1438.29 27.9046 1438.35 27.4179 1448.5 28.8426C1449.28 28.9536 1450.28 29.2942 1447.22 28.9209C1444.17 28.5487 1439.22 27.8374 1434.54 27.2865C1433.58 27.1732 1427.71 26.6252 1426.87 26.5319C1420.42 25.815 1419.4 25.3806 1419.06 25.3213C1414.89 24.6186 1408.08 24.0041 1406.02 23.7733C1396.93 22.7494 1389.66 21.8617 1382.14 21.0557C1377.24 20.5314 1376.56 20.6611 1372.81 20.2373C1360.57 18.8642 1355.41 18.0295 1343.85 17.0791C1341.3 16.871 1343.86 17.349 1334.67 16.245C1334.12 16.1778 1327.11 15.3174 1323.2 15.0411C1322.72 15.0066 1322.73 15.0725 1322.09 15.0157C1317.78 14.6341 1314.89 14.3062 1310.11 13.8832C1305.36 13.4634 1299.37 12.9518 1294.08 12.4601C1290.84 12.1587 1286.65 11.6737 1285.08 11.5092C1280.66 11.042 1275.84 10.7787 1273.06 10.4463C1270.27 10.1136 1275.7 10.3988 1268.44 9.74023C1268.17 9.88623 1267.54 10.0087 1267.1 10.1427C1251.29 8.86236 1235.5 7.64917 1219.47 6.61576C1217.47 6.48769 1219.51 6.70961 1217.37 6.57535C1208.28 6.00818 1200.6 5.48461 1191.23 4.99743C1183.98 4.62163 1176.09 4.31957 1168.55 4.00013C1163.95 3.59391 1152.72 3.18356 1144.59 2.88412C1141.74 2.77802 1141.93 2.7339 1139.91 2.64921C1132.26 2.33848 1135.84 2.62685 1133.74 2.58786C1124.74 2.43784 1123.99 2.02592 1113.36 1.80646C1112.8 1.79276 1105.92 1.87046 1104.97 1.87067C1098.96 1.86082 1103.98 1.78204 1100.22 1.71306C1093.38 1.59469 1088.57 1.49842 1080.49 1.53343C1078.14 1.54366 1072.5 1.6685 1067.96 1.59358C1067.36 1.5836 1067.69 1.51413 1067.21 1.51269C1058.53 1.50098 1058.2 1.73094 1053.2 1.86926C1048.18 2.00882 1040.48 2.02876 1038.93 2.02767C1034.84 2.01881 1042.06 1.90487 1042.28 1.89241C1044.88 1.70863 1039.27 1.84676 1035.01 1.95424C1034.41 1.75862 1028.33 1.95383 1030.54 2.07301C1030.79 2.08472 1034.16 1.96662 1035.01 1.95424C1031.29 2.25964 1024.53 2.48949 1017.25 2.59837C1013.84 2.65657 1017.02 2.38566 1006.74 2.92011C1002.11 3.17393 1003.86 3.22593 999.674 3.49677C990.034 4.12343 978.027 4.8366 968.054 5.75505C964.491 6.08377 967.967 5.84797 965.537 6.07798C959.051 6.70016 953.697 7.19097 947.095 7.98338C946.503 8.05527 947.96 7.96778 945.926 8.20676C930.656 10.0291 917.333 11.9308 902.028 14.9045C894.162 16.4087 881.33 19.3859 873.256 21.6524C859.788 25.3048 844.275 30.7339 833.297 36.2668C826.479 39.7356 828.095 39.0829 825.355 40.6736C819.551 43.983 810.862 50.2642 809.565 51.455C809.546 51.4174 814.65 47.3729 811.928 49.4492C810.268 50.6466 809.615 51.4159 809.565 51.455C808.544 52.0055 799.411 61.2117 797.903 63.5988C797.033 64.745 797.584 64.1558 797.137 64.7529C786.535 78.7398 781.29 96.5779 782.992 114.382C783.019 114.699 782.888 114.23 782.954 114.974C783.976 125.15 785.933 131.612 788.787 139.703C791.664 147.62 794.609 153.823 796.74 158.407C799.695 164.296 804.229 172.254 807.041 176.806C809.805 181.302 810.404 181.838 810.655 182.23C818.859 194.475 823.744 201.221 833.115 213.306C837.513 218.981 846.622 230.103 851.694 236.09C855.685 240.822 858.066 243.685 861.791 248.007C862.295 248.592 861.846 247.95 862.001 248.127C866.211 252.909 864.082 250.703 864.912 251.724C867.931 255.429 869.782 257.676 875.163 263.837C876.405 265.26 880.187 269.243 882.419 271.821C885.314 275.167 884.175 273.981 887.232 277.526C887.493 277.829 887.488 277.729 889.353 279.926C897.954 290.058 907.341 301.369 915.805 312.416C916.968 313.937 915.557 311.931 917.229 314.126C924.91 324.225 933.119 336.001 939.152 347.126C940.625 349.86 939.636 348.18 939.938 348.781C941.764 352.38 944.422 357.741 944.784 358.623C953.984 379.171 955.54 401.638 938.324 418.802C937.49 419.754 930.584 426.78 927.108 429.491C926.877 429.682 923.464 432.41 920.522 434.856C920.335 435.006 922.531 433.409 918.79 436.307C915.031 439.212 908.839 443.673 903.322 447.019C901.581 448.084 897.341 450.534 892.071 453.593C891.741 453.822 883.521 458.514 880.373 459.775C879.872 459.966 880.262 459.629 873.721 462.753C872.462 463.345 874.791 462.354 871.45 463.88C866.295 466.225 859.38 468.996 852.903 471.478C851.789 471.912 847.014 473.795 843.024 475.011C842.411 475.198 843.544 474.748 841.492 475.421C831.695 478.63 821.2 481.677 811.038 484.161C807.411 485.041 809.222 484.483 805.44 485.358C801.719 486.223 793.981 487.906 790.076 488.752C786.122 489.611 790.505 488.919 784.536 490.118C758.572 495.257 732.536 498.484 706.268 500.826C702.382 501.166 705.619 500.956 699.87 501.442C678.687 503.32 641.992 505.062 623.556 505.289C608.747 505.512 627.385 505.019 616.062 505.215C610.638 505.303 604.736 505.596 603.417 505.619C590.568 505.847 581.649 505.78 570.067 505.781C567.672 505.78 570.021 505.873 567.982 505.87C561.064 505.86 553.727 505.761 547.115 505.689C544.141 505.657 544.688 505.729 541.949 505.687C535.387 505.586 529.607 505.46 523.217 505.273C522.634 505.256 526.564 505.253 521.713 505.154C513.843 504.997 504.041 504.678 495.105 504.408C492.408 504.325 492.287 504.477 486.519 504.131C485.313 504.055 486.85 503.954 480.152 503.797C479.033 503.777 467.78 503.413 462.239 502.931C460.781 502.807 457.074 502.43 453.875 502.238C453.442 502.212 455.173 502.41 452.524 502.238C443.15 501.628 433.308 500.842 423.672 499.987C421.085 499.756 424.928 500.195 421.076 499.845C410.518 498.888 397.363 497.441 387.146 496.141C383.387 495.663 385.995 495.918 385.722 495.877C381.358 495.207 378.64 495.01 377.177 494.825C368.009 493.655 361.134 492.57 352.701 491.261C350.385 490.899 352.014 491.237 351.552 491.171C346.77 490.472 350.344 490.906 347.334 490.4C338.979 488.989 329.403 487.289 320.957 485.657C317.802 485.047 321.328 485.828 318.5 485.276C301.848 482.019 284.695 478.097 268.73 473.83C265.742 473.029 267.642 473.459 267.023 473.279C262.78 472.041 256.336 470.394 254.902 469.995C248.311 468.175 245.794 467.355 239.973 465.573C211.663 456.995 177.592 443.516 152.757 430.719C120.479 414.112 96.5389 398.351 70.429 375.557C68.7684 374.086 70.3783 375.642 68.95 374.371C50.6208 358.005 34.4031 339.828 20.4235 319.508C19.2806 317.839 20.8466 320.3 19.0188 317.614C15.2706 312.104 10.8276 304.94 7.53804 299.075C5.93421 296.213 8.16235 300.009 6.55416 297.125C2.50943 290.214 -0.128701 282.154 0.167993 274.078C0.346973 270.639 -0.0965017 275.828 0.257135 271.356C1.96478 255.97 12.0111 243.619 22.6793 233.481C33.7796 223.097 45.7942 214.884 58.6585 206.989C60.4036 205.927 62.0157 205.146 65.8267 202.86C66.09 202.646 66.0441 202.604 66.143 202.483C103.572 180.693 143.02 163.683 182.513 145.837C184.175 145.089 181.263 146.294 184.481 144.846C203.163 136.424 221.379 128.158 240.049 119.086C241.948 118.156 241.093 118.789 246.582 116.006C247.59 115.506 255.578 111.385 257.79 110.157C258.077 109.998 256.535 110.727 259.195 109.312C274.181 101.284 290.194 92.0804 303.239 81.1827C305.359 79.3817 303.134 81.4053 304.693 80.0643C315.078 71.2641 325.911 57.2755 321.722 44.1882C318.78 36.1513 319.863 39.08 317.34 34.8961C317.088 34.394 313.573 30.3206 313.34 30.0477C312.968 29.354 315.035 31.1879 314.425 30.2144C314.428 30.0081 308.414 24.4938 312.059 27.6958C312.387 27.9197 316.294 31.9212 317.028 32.8916C317.599 33.5673 316.688 32.2634 317.818 33.6589C318.839 34.9433 320.326 37.1495 321.668 39.9161C322.846 42.7633 322.992 41.3225 324.105 47.757ZM820.314 196.826C823.176 200.914 823.856 201.333 820.624 197.007C820.469 196.798 820.167 196.615 820.314 196.826ZM1235.58 7.47287C1229.17 6.88981 1224.73 6.78984 1229.27 7.19971C1233.81 7.61171 1237.53 7.65109 1235.58 7.47287ZM1302.47 12.8035C1294.82 12.0042 1293.58 12.319 1301.79 12.9767C1302.27 13.0153 1302.92 12.8503 1302.47 12.8035ZM322.484 55.5057C322.567 55.4403 323.08 51.5331 323.014 51.4391C323.132 49.3614 322.183 57.144 322.484 55.5057ZM1368.77 19.3754C1366.49 19.0654 1359.73 18.4006 1362.64 18.7868C1364.99 19.0979 1371.64 19.7616 1368.77 19.3754ZM944.121 410.425C944.095 410.49 942.485 412.79 942.521 412.756C942.735 412.661 944.877 409.419 944.121 410.425ZM1481.2 33.5145C1464.79 31.1424 1453.94 29.3319 1472.65 31.9648C1475.8 32.4149 1465.65 31.0988 1469.81 31.7123C1476.83 32.7525 1483.03 33.4113 1490.01 34.5838C1491.99 34.8989 1481.66 33.5755 1481.17 33.5111C1481.18 33.5122 1481.19 33.5134 1481.2 33.5145ZM821.712 199.364C821.776 199.464 824.109 202.633 824.172 202.706C825.521 204.371 820.796 197.956 821.712 199.364ZM798.319 486.173C798.104 486.228 789.078 488.146 788.794 488.196C784.124 489.34 802.355 485.479 798.319 486.173ZM902.276 14.0179C906.396 13.114 911.465 12.1956 914.916 11.7388C910.643 12.4524 906.417 13.2168 902.276 14.0179Z" fill="#D57A66"/>
</svg>
