<svg width="1396" height="506" viewBox="0 0 1396 506" fill="none" xmlns="http://www.w3.org/2000/svg">
<path d="M324.105 47.7569C325.213 55.2355 321.48 64.0705 316.276 70.4929C310.856 77.3674 304.371 82.7337 298.636 87.0859C294.898 89.8601 296.687 88.4658 294.128 90.292C289.404 93.6191 284.038 97.0899 279.146 100.008C277.438 101.025 279.52 99.6781 277.723 100.746C272.735 103.699 267.766 106.484 262.878 109.126C257.861 111.835 252.849 114.439 247.661 117.046C195.976 142.805 143.265 163.416 91.4597 190.184C74.4094 199.027 54.0187 210.493 38.1917 222.441C36.3291 223.85 37.4863 223.071 37.1358 223.343C31.7449 227.63 33.5226 226.067 30.0651 228.883C16.55 240.02 2.00676 256.293 1.49481 273.725C1.59826 280.893 1.33658 273.696 1.97752 280.908C2.05241 281.412 1.6823 279.598 1.99456 281.573C2.5872 285.465 4.57275 290.963 6.8227 294.913C7.28235 295.748 7.68889 296.477 8.00996 297.05C11.3645 302.97 11.9456 303.928 15.3437 309.388C20.0163 316.837 25.9716 325.438 31.7972 332.866C33.039 334.448 31.4572 332.305 33.4525 334.816C35.4274 337.34 40.8871 343.887 42.7736 346.023C44.6499 348.186 43.7998 347.311 44.1241 347.701C46.7738 350.94 53.6728 357.957 54.5823 358.83C70.8324 375.206 86.1701 387.856 103.933 400.25C117.408 409.63 132.62 418.682 146.421 425.96C162.888 434.635 177.33 441.25 194.13 448.014C195.92 448.729 193.859 447.806 196.043 448.674C219.1 457.809 242.586 465.385 266.442 471.839C268.816 472.479 265.732 471.743 268.104 472.386C282.709 476.426 306.138 481.798 315.012 483.146C325.164 485.218 337.342 487.433 346.408 488.994C352.225 489.99 346.54 489.167 353.729 490.274C355.355 490.52 353.253 490.112 355.693 490.485C366.03 492.064 377.133 493.628 387.346 494.848C389.404 495.094 388.852 494.954 389.437 495.012C394.347 495.515 402.583 496.609 404.396 496.812C417.928 498.356 428.028 499.234 440.721 500.23C443.687 500.458 440.187 500.095 443.043 500.31C457.814 501.415 473.139 502.305 487.598 502.954C490.831 503.098 487.854 503.056 489.399 503.128C496.251 503.439 497.696 503.336 504.2 503.575C505.571 503.623 504.797 503.669 505.047 503.684C508.958 503.922 512.385 503.838 513.399 503.859C515.231 503.896 516.973 503.933 518.648 503.969C528.626 504.181 536.113 504.438 546.685 504.547C548.158 504.561 544.838 504.435 548.978 504.479C576.594 504.769 605.836 504.669 633.147 503.904C637.412 503.782 634.37 503.943 634.638 503.943C639.015 503.933 641.823 503.658 643.205 503.601C654.131 503.155 664.322 502.785 671.752 502.148C717.928 499.481 763.976 494.352 808.636 483.679C809.206 483.541 808.205 483.873 809.342 483.597C822.912 480.201 820.339 480.684 829.161 477.987C831.364 477.313 838.271 475.349 838.848 475.161C841.034 474.504 838.822 475.356 839.552 475.129C845.536 473.222 844.555 473.165 852.549 470.265C852.799 470.173 851.777 470.631 852.449 470.391C854.516 469.654 856.628 468.819 858.669 468.047C863.342 466.253 865.062 465.814 872.029 462.603C872.904 462.175 871.464 462.65 878.397 459.389C881.2 458.154 893.16 451.873 896.338 449.91C899.622 447.99 897.411 449.382 897.647 449.247C906.426 444.025 903.082 446.081 907.471 443.409C911.8 440.664 910.41 441.159 912.089 439.939C913.76 438.756 919.807 434.293 921.214 433.148C922.653 432.025 920.912 433.493 922.183 432.484C930.555 425.614 925.706 429.29 928.359 426.919C932.108 423.456 935.358 420.358 938.44 417.204C940.499 415.088 942.301 412.912 943.891 410.511C944.98 408.816 944.034 410.224 945.005 408.605C948.55 402.153 950.072 397.879 950.594 389.608C950.744 388.259 950.427 381.522 949.625 377.253C949.517 376.634 949.948 378.375 949.319 375.257C948.466 370.745 945.66 362.637 943.573 358.188C942.006 354.782 943.733 358.749 941.726 354.42C940.809 352.514 942.568 355.944 940.879 352.479C939.303 349.108 934.251 340.349 932.232 337.276C930.198 334.082 931.239 335.874 931.072 335.619C930.026 333.998 926.004 328.115 925.622 327.599C907.018 301.153 887.205 279.008 866.799 255.196C865.191 253.329 866.196 254.63 865.95 254.345C860.43 247.964 864.929 252.866 861.157 248.34C861.58 249.099 859.338 246.441 855.487 241.923C853.633 239.746 854.588 240.978 854.414 240.783C851.603 237.614 849.802 235.25 849.334 234.649C847.605 232.424 845.566 230.144 844.405 228.628C843.247 227.113 846.101 230.441 842.503 226.053C841.449 224.859 843.988 228.227 841.242 224.902C830.709 212.429 812.653 187.865 806.012 176.514C799.157 165.228 797.335 161.486 794.007 154.6C788.413 142.049 790.325 146.586 787.352 138.699C784.613 130.414 786.246 134.37 785.92 133.16C785.644 131.979 785.231 130.728 784.901 129.278C784.581 127.834 785.381 130.929 784.576 127.554C783.627 124.077 782.219 114.63 782.181 113.329C781.936 110.685 781.741 115.036 781.744 105.681C781.761 105.146 781.791 106.885 781.857 104.836C782.265 88.3828 789.453 71.9394 800.305 59.689C800.356 59.6306 800.403 59.5759 800.448 59.5247C801.671 58.1452 800.56 59.5313 801.374 58.6203C810.718 49.1333 807.662 52.2894 813.167 47.5805C812.098 48.7722 814.889 46.262 824.077 40.7727C829.353 37.7549 828.372 38.2416 831.889 36.3454C832.934 35.7767 836.993 33.914 837.74 33.5416C840.085 32.3676 836.426 33.6388 845.99 29.7585C846.419 29.5908 845.086 30.2075 846.567 29.6229C856.278 25.9337 857.678 25.3103 868.255 22.0812C877.016 19.4241 891.879 15.9675 902.124 14.041C901.945 14.3063 911.099 12.5245 914.935 11.7356C921.478 10.6376 928.464 9.5892 934.638 8.78618C936.785 8.5078 935.385 8.76548 935.656 8.73687C939.825 8.30485 942.661 7.8004 944.078 7.62306C951.945 6.65098 958.443 5.99834 965.356 5.36507C972.218 4.74036 979.043 4.19202 986.209 3.63378C986.724 3.59496 987.538 3.36387 991.44 3.23457C991.693 3.22761 986.881 3.61065 993.743 3.18052C1000.71 2.74067 1013.49 2.18062 1023.05 1.76937C1025.34 1.66489 1031.31 1.32903 1035.92 1.31675C1036.54 1.31496 1035.86 1.38097 1036.76 1.38457C1039.65 1.39649 1041.22 1.18853 1044.64 1.26287C1048.04 1.33924 1055.2 1.31043 1064.83 1.14477C1065.13 1.13993 1067.39 0.988571 1070.4 0.980589C1075.21 0.965525 1082.06 1.00417 1087.12 1.03839C1089.54 1.0544 1087.99 0.96008 1088.41 0.961424C1104.6 1.04674 1116.18 1.34089 1133.53 1.88396C1136.71 1.98254 1145.86 2.17094 1152.01 2.50377C1158.78 2.87589 1151.81 2.98016 1167.37 3.55969C1173.64 3.80519 1181.55 3.6555 1192.85 4.54837C1214.68 5.69113 1234.73 7.17648 1256.77 8.78102C1257.76 8.85262 1260.87 8.94914 1263.16 9.13371C1266.58 9.40827 1268.41 9.62527 1270.85 9.82975C1281.31 10.7066 1290.56 11.4499 1300.43 12.3534C1304.24 12.7039 1302.91 12.6519 1307.42 13.0731C1311.92 13.4952 1314.92 13.6833 1320.88 14.3037C1325.26 14.7614 1330.13 15.4287 1336.18 16.0611C1336.42 15.8986 1340.64 16.3241 1347.9 17.0296C1349.29 17.1652 1347.81 16.9449 1348.46 17.0057C1351.09 17.2463 1353.84 17.5897 1356.45 17.8315C1357.1 17.8913 1357.13 17.8311 1357.66 17.8764C1362.15 18.2594 1369.29 19.1853 1370.48 19.344C1375.01 19.9395 1377.56 20.1427 1381.22 20.5942C1384.92 21.0508 1379.39 20.4704 1383.7 20.9825C1388.2 21.5187 1392.94 22.0765 1398.09 22.6871C1403.36 23.3114 1408.45 23.9218 1412.81 24.4537C1416.26 24.8769 1413.91 24.5041 1414.41 24.5628C1421.85 25.4497 1429.58 26.5171 1433.4 26.8346C1438.33 27.9113 1438.33 27.4149 1448.5 28.8426C1449.28 28.9535 1450.28 29.2939 1447.22 28.9209C1444.17 28.5489 1439.24 27.8394 1434.54 27.2865C1433.58 27.1737 1427.72 26.6256 1426.87 26.5319C1420.42 25.8145 1419.39 25.3803 1419.06 25.3213C1414.97 24.6284 1408.08 24.0044 1406.02 23.7732C1396.85 22.7401 1389.67 21.8642 1382.14 21.0557C1377.24 20.5313 1376.59 20.664 1372.81 20.2373C1360.56 18.864 1355.52 18.0416 1343.85 17.0791C1341.3 16.871 1343.86 17.3492 1334.67 16.245C1334.12 16.1777 1327.13 15.3195 1323.2 15.0411C1322.72 15.0066 1322.73 15.0725 1322.09 15.0157C1317.78 14.6341 1314.89 14.3063 1310.11 13.8832C1305.38 13.4651 1299.34 12.9492 1294.08 12.4601C1290.84 12.1586 1286.65 11.6737 1285.08 11.5092C1280.66 11.0419 1275.84 10.7786 1273.06 10.4463C1270.27 10.1136 1275.71 10.4006 1268.44 9.74023C1268.17 9.88622 1267.54 10.0087 1267.1 10.1427C1251.29 8.86174 1235.48 7.64767 1219.47 6.61576C1217.47 6.48772 1219.51 6.70965 1217.37 6.57534C1208.3 6.00994 1200.6 5.48483 1191.23 4.99742C1183.97 4.62116 1176.09 4.31957 1168.55 4.00013C1163.95 3.59326 1152.72 3.18245 1144.59 2.88412C1141.74 2.77812 1141.93 2.73398 1139.91 2.64921C1132.26 2.33929 1135.84 2.62708 1133.74 2.58786C1124.74 2.43928 1123.99 2.02769 1113.36 1.80646C1112.8 1.79226 1105.92 1.86992 1104.97 1.87067C1098.97 1.86138 1103.98 1.78227 1100.22 1.71306C1093.38 1.59526 1088.57 1.499 1080.49 1.53343C1078.14 1.54343 1072.5 1.66819 1067.96 1.59358C1067.36 1.58361 1067.69 1.51414 1067.21 1.51269C1058.53 1.50226 1058.2 1.73192 1053.2 1.86926C1048.18 2.00794 1040.48 2.02815 1038.93 2.02767C1034.84 2.01882 1042.05 1.90412 1042.28 1.89241C1044.88 1.70881 1039.27 1.84631 1035.01 1.95423C1034.42 1.7577 1028.32 1.95368 1030.54 2.07301C1030.79 2.08456 1034.17 1.96628 1035.01 1.95423C1031.28 2.2599 1024.53 2.48929 1017.25 2.59837C1013.84 2.6576 1017.02 2.38825 1006.74 2.92011C1002.1 3.17512 1003.85 3.22667 999.674 3.49677C989.997 4.12494 978.097 4.8297 968.054 5.75504C964.492 6.08411 967.967 5.8481 965.537 6.07798C959.052 6.70043 953.654 7.19625 947.095 7.98338C946.503 8.05529 947.961 7.96791 945.926 8.20676C938.211 9.12035 931.233 10.0473 924.196 11.1006C916.864 12.2022 909.631 13.4182 902.028 14.9045C894.11 16.4126 881.291 19.3892 873.256 21.6524C866.392 23.5469 859.578 25.6141 852.203 28.2782C845.138 30.8323 838.745 33.556 833.29 36.2705C826.476 39.7504 828.085 39.0952 825.331 40.6872C819.442 44.0243 810.873 50.232 809.54 51.4754C809.529 51.4192 814.628 47.3881 811.903 49.4681C810.238 50.6707 809.59 51.4366 809.54 51.4754C808.949 51.9087 803.866 56.3724 800.906 59.9205C799.485 61.5645 798.394 62.9564 797.911 63.5885C797.043 64.7317 797.594 64.1424 797.148 64.7378C786.509 78.7161 781.257 96.569 782.992 114.382C783.019 114.699 782.888 114.23 782.954 114.974C783.997 125.177 785.942 131.597 788.787 139.703C791.67 147.631 794.616 153.835 796.74 158.407C799.698 164.312 804.201 172.215 807.041 176.806C809.808 181.302 810.405 181.838 810.655 182.23C818.84 194.426 823.763 201.233 833.115 213.306C837.511 218.986 846.622 230.108 851.694 236.09C855.684 240.821 858.067 243.685 861.791 248.008C862.295 248.592 861.846 247.95 862.001 248.127C866.212 252.91 864.082 250.703 864.912 251.724C867.931 255.429 869.786 257.682 875.163 263.837C876.406 265.26 880.187 269.244 882.419 271.821C885.315 275.168 884.175 273.983 887.232 277.526C887.493 277.829 887.488 277.729 889.353 279.926C897.985 290.094 907.355 301.386 915.805 312.416C916.967 313.937 915.557 311.931 917.229 314.126C924.975 324.307 933.148 336.05 939.152 347.126C940.622 349.859 939.636 348.18 939.938 348.781C941.753 352.346 944.432 357.751 944.784 358.623C949.293 368.966 951.986 378.955 951.609 389.181C951.256 399.322 947.265 409.391 939.177 417.901C938.895 418.201 938.609 418.502 938.322 418.804C937.496 419.763 930.569 426.811 927.095 429.502C926.866 429.692 923.452 432.422 920.516 434.86C920.329 435.01 922.52 433.414 918.786 436.31C915.021 439.222 908.864 443.66 903.322 447.019C901.586 448.08 897.329 450.542 892.071 453.593C891.743 453.828 883.522 458.523 880.373 459.775C879.87 459.965 880.276 459.617 873.721 462.753C872.462 463.344 874.79 462.353 871.45 463.88C866.278 466.234 859.4 468.99 852.903 471.478C851.79 471.913 847.016 473.795 843.024 475.011C842.411 475.198 843.544 474.747 841.492 475.421C831.689 478.633 821.172 481.685 811.038 484.16C807.411 485.04 809.225 484.481 805.44 485.358C801.725 486.223 793.985 487.907 790.076 488.752C786.12 489.61 790.503 488.918 784.536 490.118C758.544 495.26 732.556 498.48 706.268 500.826C702.381 501.166 705.618 500.955 699.87 501.442C678.661 503.342 642.011 505.076 623.556 505.289C608.745 505.51 627.385 505.018 616.062 505.215C610.638 505.304 604.736 505.596 603.417 505.619C590.574 505.846 581.643 505.779 570.067 505.781C567.672 505.78 570.021 505.873 567.982 505.87C561.066 505.86 553.73 505.761 547.116 505.689C544.143 505.657 544.69 505.729 541.951 505.687C535.385 505.586 529.609 505.46 523.217 505.273C522.635 505.256 526.565 505.253 521.713 505.154C520.713 505.133 519.682 505.11 518.625 505.086C511.33 504.92 502.908 504.643 495.101 504.408C492.405 504.324 492.283 504.476 486.515 504.13C485.309 504.054 486.848 503.953 480.148 503.797C479.03 503.779 467.785 503.416 462.237 502.93C460.78 502.807 457.073 502.43 453.875 502.238C453.441 502.212 455.172 502.409 452.523 502.238C443.132 501.626 433.29 500.841 423.672 499.987C421.086 499.756 424.928 500.194 421.076 499.845C410.53 498.89 397.367 497.443 387.146 496.141C383.388 495.663 385.995 495.918 385.722 495.877C381.345 495.206 378.64 495.01 377.177 494.825C368.008 493.654 361.148 492.571 352.701 491.261C350.385 490.899 352.014 491.237 351.552 491.171C346.771 490.471 350.345 490.905 347.334 490.4C338.953 488.985 329.394 487.288 320.957 485.657C317.802 485.046 321.328 485.828 318.5 485.276C301.871 482.024 284.726 478.106 268.73 473.83C265.743 473.029 267.642 473.459 267.023 473.279C262.765 472.038 256.335 470.395 254.902 469.995C248.313 468.174 245.8 467.355 239.973 465.573C211.663 457.019 177.573 443.536 152.757 430.719C120.425 414.046 96.5808 398.336 70.429 375.557C68.7687 374.086 70.3786 375.642 68.95 374.371C50.6076 357.993 34.3967 339.816 20.4304 319.518C19.2885 317.849 20.8547 320.31 19.0273 317.627C15.2793 312.122 10.8335 304.955 7.54111 299.08C5.93549 296.214 8.16657 300.015 6.55546 297.127C6.26456 296.602 5.97349 296.074 5.68251 295.541C3.82187 292.142 2.40438 288.675 1.48191 285.219C0.471748 281.441 0.0525143 277.714 0.169678 274.032C0.356233 270.613 -0.0833945 275.766 0.260762 271.322C1.97951 256.005 12.0272 243.609 22.6793 233.481C33.6701 223.202 45.7633 214.904 58.6585 206.989C60.4045 205.927 62.017 205.146 65.8267 202.86C66.09 202.646 66.0441 202.604 66.143 202.483C103.559 180.729 143.045 163.684 182.513 145.837C184.175 145.089 181.263 146.294 184.481 144.846C203.179 136.415 221.294 128.196 240.049 119.086C241.946 118.156 241.089 118.789 246.582 116.006C247.617 115.494 255.533 111.412 257.79 110.157C258.077 109.998 256.533 110.727 259.195 109.312C274.269 101.224 290.093 92.1383 303.239 81.1827C305.372 79.3688 303.133 81.4052 304.693 80.0643C307.486 77.6347 309.923 75.2914 312.297 72.6477C314.867 69.7533 316.808 67.2115 318.688 63.9538C322.286 57.8232 323.668 50.5434 321.722 44.1882C320.428 40.0532 319.581 38.9834 319.229 38.139C318.822 37.3511 318.716 36.9307 317.34 34.8961C317.106 34.3944 313.59 30.3211 313.34 30.0477C312.97 29.3534 315.036 31.1872 314.425 30.2143C314.459 30.0082 308.411 24.4942 312.059 27.6958C312.402 27.9196 316.312 31.921 317.028 32.8916C317.599 33.5675 316.686 32.2636 317.818 33.6589C318.876 34.9946 320.323 37.15 321.668 39.9161C322.819 42.767 322.937 41.3175 324.105 47.7569ZM820.314 196.826C823.179 200.914 823.86 201.333 820.624 197.007C820.469 196.798 820.167 196.615 820.314 196.826ZM1235.58 7.47287C1229.17 6.88989 1224.73 6.79022 1229.27 7.19971C1233.81 7.6117 1237.53 7.65119 1235.58 7.47287ZM1302.47 12.8035C1294.81 12.0032 1293.63 12.3249 1301.79 12.9767C1302.27 13.0153 1302.92 12.8503 1302.47 12.8035ZM322.484 55.5057C322.581 55.4404 323.094 51.5332 323.014 51.4391C323.168 49.3629 322.224 57.1431 322.484 55.5057ZM1368.77 19.3754C1366.5 19.0654 1359.73 18.4006 1362.64 18.7868C1364.99 19.0979 1371.64 19.7616 1368.77 19.3754ZM944.123 410.423C944.1 410.488 942.489 412.789 942.523 412.754C942.746 412.657 944.885 409.413 944.123 410.423ZM1481.2 33.5145C1479.31 33.2391 1477.05 32.9087 1475.07 32.6161C1473.47 32.3782 1471.87 32.1389 1470.39 31.9136C1467.47 31.4709 1464.68 31.0423 1463.73 30.8703C1462.67 30.6814 1462.6 30.631 1463.83 30.7723C1465.01 30.9057 1468.43 31.3609 1472.65 31.9648C1475.83 32.4186 1465.67 31.1014 1469.81 31.7123C1471.73 31.9946 1473.37 32.2223 1474.84 32.4204C1476.47 32.6402 1478.47 32.9072 1479.99 33.109C1482.73 33.4706 1486.6 34.0064 1490.01 34.5838C1489.97 34.5838 1490.24 34.6416 1489.61 34.5696C1488.52 34.4269 1487.69 34.3322 1486.64 34.2037C1485.64 34.0823 1483.83 33.8437 1482.96 33.7371C1482.12 33.6352 1481.4 33.544 1481.17 33.5111C1481.18 33.5122 1481.19 33.5134 1481.2 33.5145ZM821.712 199.364C821.781 199.471 824.107 202.631 824.172 202.706C825.518 204.37 820.8 197.966 821.712 199.364ZM798.319 486.173C798.104 486.232 789.073 488.15 788.794 488.196C784.121 489.349 802.356 485.489 798.319 486.173ZM902.276 14.0179C906.395 13.1135 911.464 12.1952 914.916 11.7388C910.643 12.4524 906.417 13.2168 902.276 14.0179Z" fill="#D57A66"/>
</svg>
