<svg width="31" height="31" viewBox="0 0 31 31" fill="none" xmlns="http://www.w3.org/2000/svg">
<path d="M30.0825 0.705834C29.1725 -0.204166 27.7025 -0.204166 26.7925 0.705834L15.3825 12.0925L3.9725 0.6825C3.0625 -0.2275 1.5925 -0.2275 0.6825 0.6825C-0.2275 1.5925 -0.2275 3.0625 0.6825 3.9725L12.0925 15.3825L0.6825 26.7925C-0.2275 27.7025 -0.2275 29.1725 0.6825 30.0825C1.5925 30.9925 3.0625 30.9925 3.9725 30.0825L15.3825 18.6725L26.7925 30.0825C27.7025 30.9925 29.1725 30.9925 30.0825 30.0825C30.9925 29.1725 30.9925 27.7025 30.0825 26.7925L18.6725 15.3825L30.0825 3.9725C30.9692 3.08583 30.9692 1.5925 30.0825 0.705834Z" fill="#D57A66"/>
</svg>
